<mxfile host="app.diagrams.net" agent="Mozilla/5.0 (X11; Linux x86_64) AppleWebKit/537.36 (KHTML, like Gecko) Chrome/124.0.0.0 Safari/537.36" version="24.7.17">
  <diagram name="Page-1" id="ok4o0Kv7bNv_8W3ngVij">
    <mxGraphModel dx="444" dy="523" grid="1" gridSize="10" guides="1" tooltips="1" connect="1" arrows="1" fold="1" page="1" pageScale="1" pageWidth="827" pageHeight="1169" math="0" shadow="0">
      <root>
        <mxCell id="0" />
        <mxCell id="1" parent="0" />
        <mxCell id="wt9g7eq3BOetHxJ-n1tp-10" value="" style="rounded=0;whiteSpace=wrap;html=1;" parent="1" vertex="1">
          <mxGeometry x="360" y="240" width="150" height="660" as="geometry" />
        </mxCell>
        <mxCell id="wt9g7eq3BOetHxJ-n1tp-1" value="Client" style="shape=umlActor;verticalLabelPosition=bottom;verticalAlign=top;html=1;outlineConnect=0;" parent="1" vertex="1">
          <mxGeometry x="190" y="430" width="30" height="60" as="geometry" />
        </mxCell>
        <mxCell id="wt9g7eq3BOetHxJ-n1tp-4" value="" style="ellipse;whiteSpace=wrap;html=1;" parent="1" vertex="1">
          <mxGeometry x="375" y="390" width="120" height="80" as="geometry" />
        </mxCell>
        <mxCell id="wt9g7eq3BOetHxJ-n1tp-5" value="" style="ellipse;whiteSpace=wrap;html=1;" parent="1" vertex="1">
          <mxGeometry x="375" y="490" width="120" height="80" as="geometry" />
        </mxCell>
        <mxCell id="wt9g7eq3BOetHxJ-n1tp-6" value="" style="ellipse;whiteSpace=wrap;html=1;" parent="1" vertex="1">
          <mxGeometry x="375" y="590" width="120" height="80" as="geometry" />
        </mxCell>
        <mxCell id="wt9g7eq3BOetHxJ-n1tp-7" value="Retirer argent" style="text;html=1;align=center;verticalAlign=middle;whiteSpace=wrap;rounded=0;" parent="1" vertex="1">
          <mxGeometry x="405" y="415" width="60" height="30" as="geometry" />
        </mxCell>
        <mxCell id="wt9g7eq3BOetHxJ-n1tp-8" value="consulter solde" style="text;html=1;align=center;verticalAlign=middle;whiteSpace=wrap;rounded=0;" parent="1" vertex="1">
          <mxGeometry x="405" y="515" width="60" height="30" as="geometry" />
        </mxCell>
        <mxCell id="wt9g7eq3BOetHxJ-n1tp-9" value="déposer argent" style="text;html=1;align=center;verticalAlign=middle;whiteSpace=wrap;rounded=0;" parent="1" vertex="1">
          <mxGeometry x="405" y="615" width="60" height="30" as="geometry" />
        </mxCell>
        <mxCell id="wt9g7eq3BOetHxJ-n1tp-11" value="DAB" style="text;html=1;align=center;verticalAlign=middle;whiteSpace=wrap;rounded=0;" parent="1" vertex="1">
          <mxGeometry x="405" y="240" width="60" height="30" as="geometry" />
        </mxCell>
        <mxCell id="wt9g7eq3BOetHxJ-n1tp-12" value="" style="ellipse;whiteSpace=wrap;html=1;" parent="1" vertex="1">
          <mxGeometry x="375" y="295" width="120" height="80" as="geometry" />
        </mxCell>
        <mxCell id="wt9g7eq3BOetHxJ-n1tp-13" value="S&#39;authentifier" style="text;html=1;align=center;verticalAlign=middle;whiteSpace=wrap;rounded=0;" parent="1" vertex="1">
          <mxGeometry x="405" y="320" width="60" height="30" as="geometry" />
        </mxCell>
        <mxCell id="wt9g7eq3BOetHxJ-n1tp-14" value="" style="endArrow=none;html=1;rounded=0;exitX=1;exitY=0.3333333333333333;exitDx=0;exitDy=0;exitPerimeter=0;" parent="1" source="wt9g7eq3BOetHxJ-n1tp-1" target="wt9g7eq3BOetHxJ-n1tp-12" edge="1">
          <mxGeometry width="50" height="50" relative="1" as="geometry">
            <mxPoint x="580" y="410" as="sourcePoint" />
            <mxPoint x="630" y="360" as="targetPoint" />
            <Array as="points" />
          </mxGeometry>
        </mxCell>
        <mxCell id="wt9g7eq3BOetHxJ-n1tp-21" value="" style="endArrow=none;html=1;rounded=0;exitX=1;exitY=0.3333333333333333;exitDx=0;exitDy=0;exitPerimeter=0;entryX=0;entryY=0;entryDx=0;entryDy=0;" parent="1" source="wt9g7eq3BOetHxJ-n1tp-1" target="wt9g7eq3BOetHxJ-n1tp-4" edge="1">
          <mxGeometry width="50" height="50" relative="1" as="geometry">
            <mxPoint x="310" y="325" as="sourcePoint" />
            <mxPoint x="386" y="336" as="targetPoint" />
            <Array as="points" />
          </mxGeometry>
        </mxCell>
        <mxCell id="wt9g7eq3BOetHxJ-n1tp-22" value="" style="endArrow=none;html=1;rounded=0;exitX=1;exitY=0.3333333333333333;exitDx=0;exitDy=0;exitPerimeter=0;entryX=0.092;entryY=0.2;entryDx=0;entryDy=0;entryPerimeter=0;" parent="1" source="wt9g7eq3BOetHxJ-n1tp-1" target="wt9g7eq3BOetHxJ-n1tp-6" edge="1">
          <mxGeometry width="50" height="50" relative="1" as="geometry">
            <mxPoint x="320" y="335" as="sourcePoint" />
            <mxPoint x="396" y="346" as="targetPoint" />
            <Array as="points" />
          </mxGeometry>
        </mxCell>
        <mxCell id="wt9g7eq3BOetHxJ-n1tp-23" value="" style="endArrow=none;html=1;rounded=0;exitX=1;exitY=0.3333333333333333;exitDx=0;exitDy=0;exitPerimeter=0;entryX=0.033;entryY=0.388;entryDx=0;entryDy=0;entryPerimeter=0;" parent="1" source="wt9g7eq3BOetHxJ-n1tp-1" target="wt9g7eq3BOetHxJ-n1tp-5" edge="1">
          <mxGeometry width="50" height="50" relative="1" as="geometry">
            <mxPoint x="310" y="400" as="sourcePoint" />
            <mxPoint x="386" y="411" as="targetPoint" />
            <Array as="points" />
          </mxGeometry>
        </mxCell>
        <mxCell id="fzZE2MSMWB3y0PM5uwSW-1" value="Employe" style="shape=umlActor;verticalLabelPosition=bottom;verticalAlign=top;html=1;outlineConnect=0;" vertex="1" parent="1">
          <mxGeometry x="710" y="730" width="30" height="60" as="geometry" />
        </mxCell>
        <mxCell id="fzZE2MSMWB3y0PM5uwSW-4" value="" style="ellipse;whiteSpace=wrap;html=1;" vertex="1" parent="1">
          <mxGeometry x="375" y="680" width="120" height="80" as="geometry" />
        </mxCell>
        <mxCell id="fzZE2MSMWB3y0PM5uwSW-5" value="consulter virement" style="text;html=1;align=center;verticalAlign=middle;whiteSpace=wrap;rounded=0;" vertex="1" parent="1">
          <mxGeometry x="405" y="705" width="60" height="30" as="geometry" />
        </mxCell>
        <mxCell id="fzZE2MSMWB3y0PM5uwSW-6" value="" style="ellipse;whiteSpace=wrap;html=1;" vertex="1" parent="1">
          <mxGeometry x="375" y="770" width="120" height="80" as="geometry" />
        </mxCell>
        <mxCell id="fzZE2MSMWB3y0PM5uwSW-7" value="consulter dépôt" style="text;html=1;align=center;verticalAlign=middle;whiteSpace=wrap;rounded=0;" vertex="1" parent="1">
          <mxGeometry x="405" y="795" width="60" height="30" as="geometry" />
        </mxCell>
        <mxCell id="fzZE2MSMWB3y0PM5uwSW-8" value="" style="rounded=0;whiteSpace=wrap;html=1;" vertex="1" parent="1">
          <mxGeometry x="540" y="680" width="120" height="220" as="geometry" />
        </mxCell>
      </root>
    </mxGraphModel>
  </diagram>
</mxfile>
